<?xml version="1.0" encoding="iso-8859-1"?>
<!-- Generator: Adobe Illustrator 16.0.0, SVG Export Plug-In . SVG Version: 6.00 Build 0)  -->
<!DOCTYPE svg PUBLIC "-//W3C//DTD SVG 1.1//EN" "http://www.w3.org/Graphics/SVG/1.1/DTD/svg11.dtd">
<svg xmlns="http://www.w3.org/2000/svg" xmlns:xlink="http://www.w3.org/1999/xlink" version="1.1" id="Capa_1" x="0px" y="0px" width="512px" height="512px" viewBox="0 0 512 512" style="enable-background:new 0 0 512 512;" xml:space="preserve">
<g>
	<path d="M0,262.285c0,23.198,2.17,44.188,6.511,62.967c4.339,18.777,10.348,35.092,18.026,48.946   c7.678,13.854,17.442,26.039,29.293,36.554c11.85,10.516,24.703,19.112,38.556,25.788c13.853,6.675,29.668,12.099,47.444,16.273   c17.776,4.173,35.928,7.094,54.455,8.764c18.527,1.669,38.89,2.503,61.089,2.503c22.366,0,42.813-0.834,61.341-2.503   c18.525-1.67,36.721-4.592,54.58-8.764c17.857-4.174,33.756-9.598,47.693-16.273c13.938-6.677,26.873-15.272,38.809-25.788   c11.936-10.515,21.781-22.702,29.543-36.554c7.76-13.854,13.811-30.168,18.15-48.946c4.34-18.777,6.51-39.769,6.51-62.967   c0-41.395-13.854-77.197-41.559-107.408c1.502-4.006,2.879-8.554,4.131-13.646c1.252-5.091,2.42-12.351,3.504-21.781   c1.086-9.432,0.668-20.321-1.252-32.673c-1.918-12.353-5.465-24.953-10.643-37.807l-3.754-0.751   c-2.672-0.5-7.055-0.375-13.146,0.376s-13.186,2.253-21.279,4.507c-8.096,2.253-18.527,6.594-31.297,13.02   s-26.248,14.479-40.436,24.16c-24.367-6.677-57.834-10.016-100.396-10.016c-42.396,0-75.778,3.339-100.147,10.016   c-14.188-9.682-27.75-17.734-40.685-24.16S91.8,55.355,84.122,53.103c-7.677-2.254-14.855-3.714-21.531-4.382   c-6.677-0.668-10.892-0.876-12.644-0.626c-1.752,0.25-3.13,0.543-4.131,0.876c-5.174,12.854-8.721,25.453-10.64,37.807   c-1.919,12.352-2.337,23.242-1.252,32.673c1.085,9.43,2.254,16.69,3.505,21.781c1.252,5.092,2.629,9.64,4.131,13.646   C13.854,185.088,0,220.89,0,262.285z M62.842,325.127c0-24.035,10.933-46.068,32.798-66.097   c6.509-6.012,14.104-10.559,22.783-13.646c8.679-3.089,18.485-4.841,29.418-5.259c10.933-0.417,21.406-0.334,31.421,0.251   c10.014,0.584,22.366,1.377,37.054,2.378c14.688,1.002,27.374,1.502,38.056,1.502c10.683,0,23.368-0.5,38.056-1.502   c14.689-1.001,27.039-1.794,37.057-2.378c10.014-0.585,20.486-0.668,31.42-0.251c10.934,0.418,20.738,2.17,29.42,5.259   c8.678,3.088,16.271,7.635,22.781,13.646c21.865,19.695,32.799,41.728,32.799,66.097c0,14.354-1.795,27.081-5.385,38.182   c-3.588,11.102-8.178,20.405-13.771,27.915c-5.592,7.511-13.352,13.896-23.283,19.153c-9.932,5.258-19.611,9.305-29.041,12.146   c-9.432,2.837-21.533,5.049-36.305,6.635c-14.773,1.586-27.959,2.546-39.559,2.879c-11.602,0.334-26.33,0.501-44.189,0.501   c-17.859,0-32.589-0.167-44.189-0.501c-11.6-0.333-24.787-1.293-39.558-2.879s-26.872-3.798-36.303-6.635   c-9.43-2.841-19.111-6.889-29.042-12.146c-9.931-5.257-17.693-11.641-23.284-19.153c-5.591-7.511-10.182-16.813-13.77-27.915   C64.636,352.208,62.842,339.479,62.842,325.127z M320,320.08c0,26.51,14.326,48,32,48s32-21.49,32-48s-14.326-48-32-48   S320,293.57,320,320.08z M128,320.08c0,26.51,14.327,48,32,48s32-21.49,32-48s-14.327-48-32-48S128,293.57,128,320.08z" fill="#fa5086"/>
</g>
<g>
</g>
<g>
</g>
<g>
</g>
<g>
</g>
<g>
</g>
<g>
</g>
<g>
</g>
<g>
</g>
<g>
</g>
<g>
</g>
<g>
</g>
<g>
</g>
<g>
</g>
<g>
</g>
<g>
</g>
</svg>
